<?xml version="1.0" encoding="utf-8"?>
<!-- Generator: Adobe Illustrator 16.0.3, SVG Export Plug-In . SVG Version: 6.00 Build 0)  -->
<!DOCTYPE svg PUBLIC "-//W3C//DTD SVG 1.1//EN" "http://www.w3.org/Graphics/SVG/1.1/DTD/svg11.dtd">
<svg version="1.1" id="Layer_1" xmlns="http://www.w3.org/2000/svg" xmlns:xlink="http://www.w3.org/1999/xlink" x="0px" y="0px"
	 width="123px" height="339px" viewBox="0 0 123 339" enable-background="new 0 0 123 339" xml:space="preserve">
<path fill="#FFFFFF" d="M101.807,97.694l-9.027,220.698c-42.042,27.738-72.824-6.571-72.824-6.571L23.78,96.473
	C23.779,96.473,56.523,105.518,101.807,97.694z"/>
<line fill="none" stroke="#000000" stroke-miterlimit="10" x1="23.779" y1="96.472" x2="24.312" y2="96.942"/>
<line fill="none" stroke="#000000" stroke-miterlimit="10" x1="11.3" y1="308.85" x2="11.3" y2="309.352"/>
<polygon fill="#FFFFFF" points="101.343,102 23.779,102 25.822,48.138 104.447,47.901 "/>
<path fill="#FFFFFF" stroke="#000000" stroke-miterlimit="10" d="M104.447,47.901c0.001,2.356-21.723,4.375-41.407,4.399
	c-19.682,0.024-37.639-1.744-37.642-4.101c-0.002-2.355,17.95-4.408,37.631-4.432C82.714,43.743,104.443,45.546,104.447,47.901z"/>
<path fill="#FFFFFF" stroke="#000000" stroke-miterlimit="10" d="M23.779,96.472l-5.142-2.2l1.209-69.707
	c0,0,0.384-10.042,11.802-11.749c11.416-1.706,66.941-2.125,66.941-2.125s11.306,2.843,11.231,17.878
	c-0.074,15.034-2.92,67.272-2.92,67.272l-5.096,1.853h0.002l2.641-49.793l-0.024-0.013c0.32-7.685,0.534-14.325,0.525-18.203
	C104.914,14.91,94.928,15.56,94.928,15.56s-48.669,0.014-58.665,1.616c-9.999,1.601-10.27,11.469-10.27,11.469l-0.171,19.493
	L25.398,48.2l-1.086,48.742"/>
<path opacity="0.8" fill="#FFFFFF" stroke="#000000" stroke-miterlimit="10" enable-background="new    " d="M101.807,97.694
	l-9.027,220.699c-42.042,27.738-72.824-6.571-72.824-6.571L23.78,96.473C23.779,96.472,56.524,105.517,101.807,97.694z
	 M41.29,147.478l-2.689,136.444c0,0,5.351,6.862,14.296,2.973l1.58-140.229C54.477,146.665,46.449,141.817,41.29,147.478z"/>
<path fill="none" stroke="#000000" stroke-miterlimit="10" d="M25.165,77.606c0,0,35.207,7.97,78.271,0.487"/>
<line fill="none" stroke="#000000" stroke-miterlimit="10" x1="86.975" y1="80.411" x2="86.544" y2="99.778"/>
<line fill="none" stroke="#000000" stroke-miterlimit="10" x1="60.25" y1="81.238" x2="59.769" y2="100.819"/>
<path fill="none" stroke="#000000" stroke-miterlimit="10" d="M59.769,88.333c0,0,18.104,1.667,26.775-1"/>
</svg>
