<?xml version="1.0" encoding="utf-8"?>
<!-- Generator: Adobe Illustrator 16.0.3, SVG Export Plug-In . SVG Version: 6.00 Build 0)  -->
<!DOCTYPE svg PUBLIC "-//W3C//DTD SVG 1.1//EN" "http://www.w3.org/Graphics/SVG/1.1/DTD/svg11.dtd">
<svg version="1.1" id="Layer_1" xmlns="http://www.w3.org/2000/svg" xmlns:xlink="http://www.w3.org/1999/xlink" x="0px" y="0px"
	 width="515px" height="417px" viewBox="0 0 515 417" enable-background="new 0 0 515 417" xml:space="preserve">
<path fill="#FFFFFF" stroke="#000000" stroke-miterlimit="10" d="M442.889,257.729c0,6.627-5.373,12-12,12H88.244
	c-6.627,0-12-5.373-12-12l-15-230.154c0-6.627,5.373-12,12-12h371.645c6.627,0,12,5.373,12,12L442.889,257.729z"/>
<path fill="none" stroke="#000000" stroke-miterlimit="10" d="M502.555,384.576c5.832,13.168-4.832,19-4.832,19l-473-0.5
	c0,0-17.5-1.002-13.5-20.501"/>
<path fill="none" stroke="#000000" stroke-miterlimit="10" d="M449.889,281.729c-3.622-7.34-6.373-12-13-12h-356
	c-6.627,0-9.552,3.582-13.925,11.566l-55.741,101.28c0,6.627,5.373,12,12,12h467.332c6.627,0,12-5.373,12-12L449.889,281.729z"/>
<polyline fill="none" stroke="#000000" stroke-miterlimit="10" points="191.223,337.076 322.223,337.076 328.723,382.575 
	184.723,382.575 191.223,337.076 "/>
<polygon fill="none" stroke="#000000" stroke-miterlimit="10" points="113.223,277.076 403.723,277.076 421.723,327.076 
	92.223,327.076 "/>
<polygon fill="#FFFFFF" stroke="#000000" stroke-miterlimit="10" points="441.557,33.508 78.223,33.508 92.223,254.163 
	427.557,254.163 "/>
<line fill="none" stroke="#000000" stroke-miterlimit="10" x1="97.047" y1="315.589" x2="417.116" y2="315.589"/>
<line fill="none" stroke="#000000" stroke-miterlimit="10" x1="101.01" y1="306.153" x2="414.367" y2="306.153"/>
<line fill="none" stroke="#000000" stroke-miterlimit="10" x1="411.078" y1="297.508" x2="104.535" y2="297.509"/>
<line fill="none" stroke="#000000" stroke-miterlimit="10" x1="107.81" y1="289.963" x2="408.185" y2="289.963"/>
<line fill="none" stroke="#000000" stroke-miterlimit="10" x1="405.107" y1="280.924" x2="111.316" y2="280.924"/>
<line fill="none" stroke="#000000" stroke-miterlimit="10" x1="117.223" y1="315.589" x2="112.889" y2="327.076"/>
<line fill="none" stroke="#000000" stroke-miterlimit="10" x1="120.556" y1="315.589" x2="117.223" y2="327.076"/>
<line fill="none" stroke="#000000" stroke-miterlimit="10" x1="143.288" y1="315.589" x2="139.481" y2="327.076"/>
<line fill="none" stroke="#000000" stroke-miterlimit="10" x1="162.324" y1="315.589" x2="159.43" y2="327.076"/>
<line fill="none" stroke="#000000" stroke-miterlimit="10" x1="165.979" y1="315.589" x2="163.237" y2="327.076"/>
<line fill="none" stroke="#000000" stroke-miterlimit="10" x1="191.867" y1="306.153" x2="188.517" y2="327.076"/>
<line fill="none" stroke="#000000" stroke-miterlimit="10" x1="194.912" y1="306.153" x2="191.867" y2="327.076"/>
<line fill="none" stroke="#000000" stroke-miterlimit="10" x1="213.339" y1="306.153" x2="212.577" y2="315.589"/>
<line fill="none" stroke="#000000" stroke-miterlimit="10" x1="216.384" y1="306.153" x2="216.08" y2="315.589"/>
<line fill="none" stroke="#000000" stroke-miterlimit="10" x1="234.811" y1="306.153" x2="234.963" y2="315.589"/>
<line fill="none" stroke="#000000" stroke-miterlimit="10" x1="238.313" y1="306.153" x2="238.465" y2="315.589"/>
<line fill="none" stroke="#000000" stroke-miterlimit="10" x1="140.243" y1="297.508" x2="137.654" y2="306.153"/>
<line fill="none" stroke="#000000" stroke-miterlimit="10" x1="137.654" y1="289.963" x2="135.674" y2="297.509"/>
<line fill="none" stroke="#000000" stroke-miterlimit="10" x1="131.562" y1="277.076" x2="127.755" y2="289.963"/>
<line fill="none" stroke="#000000" stroke-miterlimit="10" x1="135.674" y1="277.076" x2="131.562" y2="289.963"/>
<line fill="none" stroke="#000000" stroke-miterlimit="10" x1="152.73" y1="277.076" x2="151.816" y2="280.924"/>
<line fill="none" stroke="#000000" stroke-miterlimit="10" x1="156.841" y1="277.076" x2="156.08" y2="280.924"/>
<line fill="none" stroke="#000000" stroke-miterlimit="10" x1="141.385" y1="289.963" x2="139.481" y2="297.509"/>
<line fill="none" stroke="#000000" stroke-miterlimit="10" x1="158.364" y1="289.963" x2="156.841" y2="296.915"/>
<line fill="none" stroke="#000000" stroke-miterlimit="10" x1="162.324" y1="289.963" x2="160.877" y2="297.509"/>
<line fill="none" stroke="#000000" stroke-miterlimit="10" x1="178.466" y1="289.963" x2="177.704" y2="297.508"/>
<line fill="none" stroke="#000000" stroke-miterlimit="10" x1="182.121" y1="289.963" x2="181.511" y2="297.508"/>
<line fill="none" stroke="#000000" stroke-miterlimit="10" x1="160.877" y1="297.509" x2="159.43" y2="306.153"/>
<line fill="none" stroke="#000000" stroke-miterlimit="10" x1="164.608" y1="297.509" x2="163.237" y2="306.153"/>
<line fill="none" stroke="#000000" stroke-miterlimit="10" x1="143.288" y1="297.508" x2="140.973" y2="306.153"/>
<line fill="none" stroke="#000000" stroke-miterlimit="10" x1="182.473" y1="297.509" x2="181.511" y2="306.153"/>
<line fill="none" stroke="#000000" stroke-miterlimit="10" x1="185.973" y1="297.508" x2="184.723" y2="306.153"/>
<line fill="none" stroke="#000000" stroke-miterlimit="10" x1="173.556" y1="306.153" x2="170.889" y2="315.589"/>
<line fill="none" stroke="#000000" stroke-miterlimit="10" x1="170.056" y1="306.153" x2="167.389" y2="315.589"/>
<line fill="none" stroke="#000000" stroke-miterlimit="10" x1="152.139" y1="306.153" x2="148.973" y2="315.589"/>
<line fill="none" stroke="#000000" stroke-miterlimit="10" x1="148.556" y1="306.153" x2="145.306" y2="315.589"/>
<line fill="none" stroke="#000000" stroke-miterlimit="10" x1="203.639" y1="297.509" x2="203.223" y2="306.153"/>
<line fill="none" stroke="#000000" stroke-miterlimit="10" x1="207.306" y1="297.509" x2="206.389" y2="306.153"/>
<line fill="none" stroke="#000000" stroke-miterlimit="10" x1="224.556" y1="297.508" x2="224.389" y2="306.153"/>
<line fill="none" stroke="#000000" stroke-miterlimit="10" x1="228.723" y1="297.509" x2="228.389" y2="306.153"/>
<line fill="none" stroke="#000000" stroke-miterlimit="10" x1="245.973" y1="297.508" x2="246.139" y2="306.153"/>
<line fill="none" stroke="#000000" stroke-miterlimit="10" x1="249.806" y1="297.508" x2="249.473" y2="305.743"/>
<line fill="none" stroke="#000000" stroke-miterlimit="10" x1="245.223" y1="289.963" x2="245.056" y2="297.509"/>
<line fill="none" stroke="#000000" stroke-miterlimit="10" x1="241.056" y1="289.963" x2="241.223" y2="296.915"/>
<line fill="none" stroke="#000000" stroke-miterlimit="10" x1="223.889" y1="289.963" x2="223.389" y2="297.508"/>
<line fill="none" stroke="#000000" stroke-miterlimit="10" x1="220.056" y1="289.963" x2="220.056" y2="297.508"/>
<line fill="none" stroke="#000000" stroke-miterlimit="10" x1="203.639" y1="289.963" x2="202.306" y2="297.508"/>
<line fill="none" stroke="#000000" stroke-miterlimit="10" x1="256.139" y1="306.153" x2="255.973" y2="315.589"/>
<line fill="none" stroke="#000000" stroke-miterlimit="10" x1="260.307" y1="306.153" x2="260.141" y2="315.589"/>
<line fill="none" stroke="#000000" stroke-miterlimit="10" x1="278.223" y1="306.153" x2="278.307" y2="315.589"/>
<line fill="none" stroke="#000000" stroke-miterlimit="10" x1="282.557" y1="306.153" x2="282.557" y2="315.589"/>
<line fill="none" stroke="#000000" stroke-miterlimit="10" x1="299.723" y1="306.153" x2="301.307" y2="327.076"/>
<line fill="none" stroke="#000000" stroke-miterlimit="10" x1="303.473" y1="306.153" x2="305.223" y2="327.076"/>
<line fill="none" stroke="#000000" stroke-miterlimit="10" x1="321.057" y1="306.153" x2="322.807" y2="315.589"/>
<line fill="none" stroke="#000000" stroke-miterlimit="10" x1="327.557" y1="315.589" x2="330.639" y2="327.076"/>
<line fill="none" stroke="#000000" stroke-miterlimit="10" x1="349.473" y1="315.589" x2="352.973" y2="327.076"/>
<line fill="none" stroke="#000000" stroke-miterlimit="10" x1="342.723" y1="306.153" x2="345.223" y2="315.589"/>
<line fill="none" stroke="#000000" stroke-miterlimit="10" x1="347.223" y1="306.153" x2="348.723" y2="315.589"/>
<line fill="none" stroke="#000000" stroke-miterlimit="10" x1="326.389" y1="306.153" x2="326.307" y2="315.589"/>
<line fill="none" stroke="#000000" stroke-miterlimit="10" x1="329.639" y1="297.508" x2="332.639" y2="306.153"/>
<line fill="none" stroke="#000000" stroke-miterlimit="10" x1="335.223" y1="297.509" x2="335.223" y2="306.153"/>
<line fill="none" stroke="#000000" stroke-miterlimit="10" x1="351.639" y1="297.508" x2="354.223" y2="306.153"/>
<line fill="none" stroke="#000000" stroke-miterlimit="10" x1="356.807" y1="297.509" x2="357.807" y2="305.66"/>
<line fill="none" stroke="#000000" stroke-miterlimit="10" x1="313.639" y1="297.508" x2="313.889" y2="305.66"/>
<line fill="none" stroke="#000000" stroke-miterlimit="10" x1="309.139" y1="297.508" x2="310.389" y2="306.153"/>
<line fill="none" stroke="#000000" stroke-miterlimit="10" x1="292.973" y1="297.509" x2="292.473" y2="306.153"/>
<line fill="none" stroke="#000000" stroke-miterlimit="10" x1="307.389" y1="289.963" x2="307.723" y2="297.508"/>
<line fill="none" stroke="#000000" stroke-miterlimit="10" x1="303.473" y1="289.963" x2="304.348" y2="297.508"/>
<line fill="none" stroke="#000000" stroke-miterlimit="10" x1="296.639" y1="280.924" x2="296.557" y2="289.963"/>
<line fill="none" stroke="#000000" stroke-miterlimit="10" x1="311.057" y1="280.924" x2="313.889" y2="289.963"/>
<line fill="none" stroke="#000000" stroke-miterlimit="10" x1="316.223" y1="280.924" x2="317.889" y2="289.577"/>
<line fill="none" stroke="#000000" stroke-miterlimit="10" x1="331.723" y1="280.924" x2="334.557" y2="289.577"/>
<line fill="none" stroke="#000000" stroke-miterlimit="10" x1="286.973" y1="289.963" x2="286.891" y2="296.915"/>
<line fill="none" stroke="#000000" stroke-miterlimit="10" x1="282.557" y1="289.963" x2="283.141" y2="297.508"/>
<line fill="none" stroke="#000000" stroke-miterlimit="10" x1="266.391" y1="289.963" x2="265.723" y2="297.508"/>
<line fill="none" stroke="#000000" stroke-miterlimit="10" x1="261.391" y1="289.963" x2="262.057" y2="297.508"/>
<line fill="none" stroke="#000000" stroke-miterlimit="10" x1="266.807" y1="297.508" x2="267.473" y2="305.743"/>
<line fill="none" stroke="#000000" stroke-miterlimit="10" x1="271.973" y1="297.508" x2="271.641" y2="305.743"/>
<line fill="none" stroke="#000000" stroke-miterlimit="10" x1="287.723" y1="297.508" x2="289.307" y2="306.153"/>
<line fill="none" stroke="#000000" stroke-miterlimit="10" x1="276.141" y1="280.924" x2="276.223" y2="289.963"/>
<line fill="none" stroke="#000000" stroke-miterlimit="10" x1="271.973" y1="280.924" x2="271.973" y2="289.963"/>
<line fill="none" stroke="#000000" stroke-miterlimit="10" x1="255.973" y1="280.924" x2="255.973" y2="289.576"/>
<line fill="none" stroke="#000000" stroke-miterlimit="10" x1="251.139" y1="280.924" x2="251.723" y2="289.576"/>
<line fill="none" stroke="#000000" stroke-miterlimit="10" x1="234.963" y1="280.924" x2="234.811" y2="289.963"/>
<line fill="none" stroke="#000000" stroke-miterlimit="10" x1="231.056" y1="280.924" x2="231.389" y2="289.576"/>
<line fill="none" stroke="#000000" stroke-miterlimit="10" x1="214.556" y1="280.924" x2="214.139" y2="289.576"/>
<line fill="none" stroke="#000000" stroke-miterlimit="10" x1="292.473" y1="280.924" x2="292.723" y2="289.963"/>
<line fill="none" stroke="#000000" stroke-miterlimit="10" x1="322.807" y1="289.577" x2="324.723" y2="297.159"/>
<line fill="none" stroke="#000000" stroke-miterlimit="10" x1="328.723" y1="289.963" x2="328.641" y2="297.508"/>
<line fill="none" stroke="#000000" stroke-miterlimit="10" x1="344.307" y1="289.963" x2="346.307" y2="297.159"/>
<line fill="none" stroke="#000000" stroke-miterlimit="10" x1="349.473" y1="289.963" x2="349.473" y2="297.508"/>
<line fill="none" stroke="#000000" stroke-miterlimit="10" x1="364.307" y1="289.963" x2="367.391" y2="297.508"/>
<line fill="none" stroke="#000000" stroke-miterlimit="10" x1="364.307" y1="306.153" x2="367.057" y2="315.589"/>
<line fill="none" stroke="#000000" stroke-miterlimit="10" x1="368.723" y1="306.153" x2="370.891" y2="315.589"/>
<line fill="none" stroke="#000000" stroke-miterlimit="10" x1="337.557" y1="280.924" x2="337.973" y2="289.577"/>
<line fill="none" stroke="#000000" stroke-miterlimit="10" x1="353.307" y1="280.924" x2="355.889" y2="289.577"/>
<line fill="none" stroke="#000000" stroke-miterlimit="10" x1="357.807" y1="280.924" x2="358.389" y2="289.963"/>
<line fill="none" stroke="#000000" stroke-miterlimit="10" x1="372.973" y1="280.924" x2="375.889" y2="289.577"/>
<line fill="none" stroke="#000000" stroke-miterlimit="10" x1="376.639" y1="280.924" x2="379.639" y2="289.963"/>
<line fill="none" stroke="#000000" stroke-miterlimit="10" x1="369.139" y1="289.963" x2="371.473" y2="297.159"/>
<line fill="none" stroke="#000000" stroke-miterlimit="10" x1="386.139" y1="289.963" x2="389.139" y2="297.159"/>
<line fill="none" stroke="#000000" stroke-miterlimit="10" x1="391.139" y1="289.963" x2="392.223" y2="297.159"/>
<line fill="none" stroke="#000000" stroke-miterlimit="10" x1="372.973" y1="297.508" x2="375.223" y2="305.66"/>
<line fill="none" stroke="#000000" stroke-miterlimit="10" x1="376.639" y1="297.509" x2="379.223" y2="306.153"/>
<line fill="none" stroke="#000000" stroke-miterlimit="10" x1="380.807" y1="277.076" x2="382.389" y2="280.924"/>
<line fill="none" stroke="#000000" stroke-miterlimit="10" x1="386.473" y1="277.076" x2="386.139" y2="280.924"/>
<line fill="none" stroke="#000000" stroke-miterlimit="10" x1="365.307" y1="277.076" x2="365.139" y2="280.924"/>
<line fill="none" stroke="#000000" stroke-miterlimit="10" x1="359.807" y1="277.076" x2="361.723" y2="280.924"/>
<line fill="none" stroke="#000000" stroke-miterlimit="10" x1="343.973" y1="277.076" x2="343.973" y2="280.924"/>
<line fill="none" stroke="#000000" stroke-miterlimit="10" x1="339.391" y1="277.076" x2="341.223" y2="280.924"/>
<line fill="none" stroke="#000000" stroke-miterlimit="10" x1="323.764" y1="277.076" x2="323.391" y2="280.924"/>
<line fill="none" stroke="#000000" stroke-miterlimit="10" x1="318.557" y1="277.076" x2="320.223" y2="280.924"/>
<line fill="none" stroke="#000000" stroke-miterlimit="10" x1="303.473" y1="277.076" x2="303.473" y2="280.924"/>
<line fill="none" stroke="#000000" stroke-miterlimit="10" x1="297.891" y1="277.076" x2="298.807" y2="280.924"/>
<line fill="none" stroke="#000000" stroke-miterlimit="10" x1="281.723" y1="277.076" x2="281.641" y2="280.924"/>
<line fill="none" stroke="#000000" stroke-miterlimit="10" x1="277.141" y1="277.076" x2="278.223" y2="280.924"/>
<line fill="none" stroke="#000000" stroke-miterlimit="10" x1="260.891" y1="277.076" x2="260.891" y2="280.924"/>
<line fill="none" stroke="#000000" stroke-miterlimit="10" x1="256.473" y1="277.076" x2="257.082" y2="280.924"/>
<line fill="none" stroke="#000000" stroke-miterlimit="10" x1="240.139" y1="277.076" x2="240.056" y2="280.924"/>
<line fill="none" stroke="#000000" stroke-miterlimit="10" x1="235.389" y1="277.076" x2="236.473" y2="280.924"/>
<line fill="none" stroke="#000000" stroke-miterlimit="10" x1="219.223" y1="277.076" x2="218.806" y2="280.924"/>
<line fill="none" stroke="#000000" stroke-miterlimit="10" x1="214.556" y1="277.076" x2="215.306" y2="280.924"/>
<line fill="none" stroke="#000000" stroke-miterlimit="10" x1="199.223" y1="277.076" x2="198.473" y2="280.924"/>
<line fill="none" stroke="#000000" stroke-miterlimit="10" x1="193.39" y1="277.076" x2="194.473" y2="280.924"/>
<line fill="none" stroke="#000000" stroke-miterlimit="10" x1="210.223" y1="280.924" x2="210.389" y2="289.963"/>
<line fill="none" stroke="#000000" stroke-miterlimit="10" x1="194.473" y1="280.924" x2="193.39" y2="289.963"/>
<line fill="none" stroke="#000000" stroke-miterlimit="10" x1="190.806" y1="280.924" x2="190.191" y2="289.963"/>
<line fill="none" stroke="#000000" stroke-miterlimit="10" x1="175.223" y1="280.924" x2="172.639" y2="289.576"/>
<line fill="none" stroke="#000000" stroke-miterlimit="10" x1="170.889" y1="280.924" x2="169.056" y2="289.576"/>
<line fill="none" stroke="#000000" stroke-miterlimit="10" x1="154.973" y1="280.924" x2="152.273" y2="289.963"/>
<line fill="none" stroke="#000000" stroke-miterlimit="10" x1="150.556" y1="280.924" x2="148.223" y2="289.963"/>
<line fill="none" stroke="#000000" stroke-miterlimit="10" x1="172.223" y1="277.076" x2="172.639" y2="280.924"/>
<line fill="none" stroke="#000000" stroke-miterlimit="10" x1="178.466" y1="277.076" x2="177.704" y2="280.924"/>
<line fill="none" stroke="#000000" stroke-miterlimit="10" x1="333.307" y1="315.589" x2="333.973" y2="327.076"/>
<path fill="none" stroke="#000000" stroke-miterlimit="10" d="M355.889,327.076c0.002-1.333-0.416-6.167-0.416-6.167h18.168
	l2.666,6.167"/>
<line fill="none" stroke="#000000" stroke-miterlimit="10" x1="394.889" y1="315.589" x2="398.889" y2="327.076"/>
<line fill="none" stroke="#000000" stroke-miterlimit="10" x1="376.307" y1="315.589" x2="379.223" y2="327.076"/>
<line fill="none" stroke="#000000" stroke-miterlimit="10" x1="377.656" y1="320.909" x2="396.741" y2="320.909"/>
<polyline fill="none" stroke="#000000" stroke-miterlimit="10" points="401.973,327.076 400.473,321.332 419.503,320.909 "/>
<line fill="none" stroke="#000000" stroke-miterlimit="10" x1="198.848" y1="289.963" x2="198.848" y2="297.509"/>
</svg>
