<?xml version="1.0" encoding="utf-8"?>
<!-- Generator: Adobe Illustrator 16.0.3, SVG Export Plug-In . SVG Version: 6.00 Build 0)  -->
<!DOCTYPE svg PUBLIC "-//W3C//DTD SVG 1.1//EN" "http://www.w3.org/Graphics/SVG/1.1/DTD/svg11.dtd">
<svg version="1.1" xmlns="http://www.w3.org/2000/svg" xmlns:xlink="http://www.w3.org/1999/xlink" x="0px" y="0px" width="241px"
	 height="242.095px" viewBox="0 0 241 242.095" enable-background="new 0 0 241 242.095" xml:space="preserve">
<g id="Layer_1">
	<path fill="#EDFF86" stroke="#000000" stroke-miterlimit="10" d="M53.213,117.334c-1.021,4.248-1.189,2.71-5.331,4.666
		c-4.276,2.02-2.952,0.465-5.333,4c-1.022,1.517-1.914,5.398-2.766,7.235c-4.741-0.839-4.512,2.212-6.583,4.749
		c-1.071,1.312-4.668,5.889-4.754,7.915c-8.693-1.31-12.19,8.583-6.648,13.952c-3.145,1.041-11.38,7.212-5.3,9.596
		c-12,14.162,12.996,9.823,18.279,7.987c-3.285,3.15-12.927,7.084-11.577,12.581c1.433,5.834,12.104,4.474,16.449,3.403
		c-2.628,4.855-3.769,7.409,1.567,9.282c3.205,1.126,10.021,0.154,12.553-1.819c0.657,0.537,2.631,2.375,3.246,3.066
		c-7.938,6.011-0.686,7.38,5.318,7.486c-6.102,6.277-0.195,8.473,6.116,8c0.515,3.274-0.051,2.728,2.704,3.998
		c-2.278,4.324,1.25,6.652,5.405,5.912c3.241-0.585,3.969-4.415,6.521-5.377c3.043-1.146,5.38,0.24,8.801,0.229
		c1.476-0.006,1.776-2.681,2.8-2.725c2.141-0.093,2.49,1.534,4.588,1.875c2.77,0.451,5.616,1.511,8.649,1.17
		c2.239-0.252,5.717-3.045,7.432-3.048c2.741-0.005,4.303,2.627,7.201,2.544c2.705-0.077,4.452-2.738,6.632-4.047
		c1.068-0.642,2.78,0.427,4.05-0.437c1.281-0.87,1.232-2.723,2.133-3.396c2.273-1.699,3.374-3.13,6.385-4.3
		c1.821-0.708,5.492-0.354,7.169-1.299c3.463-1.951,2.265-3.954,4.133-6.55c1.595-2.216,3.977-2.886,4.862-5.981
		c0.836-2.924-2.36-4.893-1.381-7.352c1.107-2.777,3.379-1.276,5.164-3.472c2.274-2.798,1.364-4.964,2.868-7.846
		c2.106-4.036,6.277-7.864,8.032-12.669c0.697-1.909-0.745-4.589,0.088-6.517c0.993-2.296,3.611-3.519,5.16-5.316
		c3.611-4.19,4.22-9.586,8.061-13.502c5.021-5.119,7.872-4.699,7.411-13.231c6.162-0.918,7.384-11.535,9.883-16.115
		c2.5-4.583,8.014-6.195,8.13-12.533c3.556-0.888,2.908-2.979,4.57-5.419c1.321-1.938,4.083-5.249,3.417-8.599
		c4.267-0.391,8.307-15.773,8-20.667c3.142-0.51,1.669-13.886-1.318-15.548c0.422-11.86,3.261-31.587-12.004-33.945
		c-0.734-4.692-10.338-2.777-12.961-0.039c-5.567-5.481-16.684-2.329-21.966-0.564c-3.439,1.149-12.063-0.392-14.566,1.432
		c-3.754,2.736-0.281,6.234-5.468,7.414c-0.565,0.128-3.588-1.8-5.183-1.547c-2.055,0.326-1.313,2.819-2.438,3.562
		c-3.262,2.154-6.218,3.104-8.862,5.138c-1.905,1.466-6.54,2.091-8.181,3.819c-2.705,2.85-2.768,8.365-7.721,7.612
		c-0.669,9.628-16.468,10.188-14.866,18.468c-6.015,0.026-13.679,3.518-9.318,9.984c-4.294-0.41-8.802,1.238-9.364,6.016
		c-2.579-0.151-2.696,1.179-4.4,2.103c-1.542,0.837-3.744,1.067-5.667,1.998c-4.103,1.986-6.008,2.433-5.25,8.568
		c-5.209,0.94-7.94,8.804-5.968,13.432c-4.631,2.515-3.396,4.615-8.606,6.036c-2.252,0.61-7.42-0.389-9.121,1.001
		C50.915,112.297,53.988,114.108,53.213,117.334z"/>
	<path fill="none" stroke="#000000" stroke-miterlimit="10" d="M179.215,14.667c-18.532,13.123-28.557,35.758-46.013,50.237
		c-10.859,9.008-19.095,19.984-31.56,27.061c-11.354,6.445-20.14,14.654-28.663,24.793c-7.866,9.356-13.395,18.822-23.764,25.575
		L53.882,151c14.333-10.667,30.995-35.146,38-40.333c11.258-8.338,21.483-15.357,26.879-19.854
		c10.443-8.703,20.805-17.891,30.331-27.581c8.764-8.915,15.722-19.134,23.418-28.962c6.178-7.889,11.168-17.064,20.039-22.271"/>
	<path fill="none" stroke="#000000" stroke-linecap="round" stroke-miterlimit="10" d="M67.215,158.667
		c-3.49,0.569-13.987,1.271-14.475,6.159c-0.567,5.681,7.778,4.798,10.809,3.174"/>
	<path fill="none" stroke="#000000" stroke-linecap="round" stroke-miterlimit="10" d="M68.215,157.333
		c-8.949-6.165-0.637-18.663,8.632-11.684c-1.42-4.285-2.831-11.697,0.712-15.439c3.053-3.225,6.143-2.039,7.666,2.111
		c5.284-11.69,15.761-6.897,11.348,4.393c0.03-0.626,0.244-1.197,0.641-1.714"/>
	<path fill="none" stroke="#000000" stroke-linecap="round" stroke-miterlimit="10" d="M97.882,134.333
		c1.989-3.82,7.203-8.045,10.092-2.674c2.479,4.609-2.572,11.145-5.758,14.008"/>
	<path fill="none" stroke="#000000" stroke-linecap="round" stroke-miterlimit="10" d="M96.549,150
		c4.135-9.791-13.79-10.354-13.667,1"/>
	<path fill="none" stroke="#000000" stroke-linecap="round" stroke-miterlimit="10" d="M90.549,164.333
		c-1.514-5.084,0.666-13.287,7.13-13.825c6.408-0.534,6.594,6.588,2.87,10.159"/>
	<path fill="none" stroke="#000000" stroke-linecap="round" stroke-miterlimit="10" d="M86.215,163.667
		c-13.688-12.945-15.806,7.276-1.744,3.942"/>
	<path fill="none" stroke="#000000" stroke-linecap="round" stroke-miterlimit="10" d="M74.549,168.333
		c-2.531-5.011-8.771-1.119-9.15,3.212c-0.565,6.446,6.215,7.586,10.483,4.122"/>
	<path fill="none" stroke="#000000" stroke-linecap="round" stroke-miterlimit="10" d="M91.549,170.667
		c-4.567-0.025-16.541,0.215-14.644,7.94c1.863,7.584,11.049,1.57,14.549-0.964"/>
	<path fill="none" stroke="#000000" stroke-linecap="round" stroke-miterlimit="10" d="M71.215,186
		c-8.073,10.547,14.879,10.644,8.667-0.667"/>
	<path fill="none" stroke="#000000" stroke-linecap="round" stroke-miterlimit="10" d="M68.215,179c-10.952-0.05-6.86,15.07-2,10"/>
	<path fill="none" stroke="#000000" stroke-linecap="round" stroke-miterlimit="10" d="M61.882,172
		c-11.817-2.938-12.669,11.134-2.71,9.95"/>
	<path fill="none" stroke="#000000" stroke-linecap="round" stroke-miterlimit="10" d="M51.882,181.667
		c-8.769,5.237,1.265,9.07,6.667,8.333"/>
	<path fill="none" stroke="#000000" stroke-linecap="round" stroke-miterlimit="10" d="M78.549,194.667
		c-2.721,2.565-7.912,8.455-2.863,11.281c5.953,3.333,11.677-6.115,13.196-10.281"/>
	<path fill="none" stroke="#000000" stroke-linecap="round" stroke-miterlimit="10" d="M87.549,125.333
		c1.573-9.965,16.146-10.687,13.458,0.146c0.213-1.043,0.394-2.092,0.542-3.146"/>
	<path fill="none" stroke="#000000" stroke-linecap="round" stroke-miterlimit="10" d="M101.215,116.667
		c0.716-4.068,0.689-11.956,6.859-11.922c4.47,0.025,6.255,5.507,4.474,8.588"/>
	<path fill="none" stroke="#000000" stroke-linecap="round" stroke-miterlimit="10" d="M106.549,127.667
		c1.386-3.854,7.513-14.966,12.326-8.274c3.614,5.025-3.455,11.442-6.993,13.94"/>
	<path fill="none" stroke="#000000" stroke-linecap="round" stroke-miterlimit="10" d="M112.215,139.333
		c1.929-3.192,6.733-12.832,11.618-11.297c5.036,1.583,2.728,8.713-1.285,9.964"/>
	<path fill="none" stroke="#000000" stroke-linecap="round" stroke-miterlimit="10" d="M116.215,153.333
		c5.448-4.608,7.991-13.792-2.11-11.754c-5.527,1.115-8.513,5.233-8.89,10.754"/>
	<path fill="none" stroke="#000000" stroke-linecap="round" stroke-miterlimit="10" d="M105.549,166
		c-0.616-3.179-0.911-11.616,3.763-12.478c4.752-0.876,6.482,6.109,4.57,9.145"/>
	<path fill="none" stroke="#000000" stroke-linecap="round" stroke-miterlimit="10" d="M52.882,155.333
		c-11.515-2.81-19.622,12.583-5.667,13"/>
	<path fill="none" stroke="#000000" stroke-linecap="round" stroke-miterlimit="10" d="M199.882,36.667
		c-4.353-4.662-9.835,0.236-8,5.666"/>
	<path fill="none" stroke="#000000" stroke-linecap="round" stroke-miterlimit="10" d="M185.549,53.667
		c-0.084-3.226,3.238-9.485,7.166-9.232c4.274,0.275,5.464,6.76,1.501,8.565"/>
	<path fill="none" stroke="#000000" stroke-linecap="round" stroke-miterlimit="10" d="M183.882,46.667
		c-0.707-7.022-10.93-11.819-10.402-2.377c-7.089-3.429-8.135,8.047-3.015,11.066c-2.319,0.332-2.46,0.417-3.825,2.301
		c-2.218-5.687-6.709-0.502-8.091,2.343"/>
	<path fill="none" stroke="#000000" stroke-linecap="round" stroke-miterlimit="10" d="M155.215,75
		c-2.567-11.982,14.812-9.14,7.667,0.667"/>
	<path fill="none" stroke="#000000" stroke-linecap="round" stroke-miterlimit="10" d="M152.882,74.333
		c2.039-7.149-10.077-9.729-6.296,0.569c-5.074-9.497-9.36,4.572-2.371,7.098"/>
	<path fill="none" stroke="#000000" stroke-linecap="round" stroke-miterlimit="10" d="M139.215,85.333
		c-0.453-3.682-3.679-5.523-6.621-3.061c-2.3,1.926-1.908,6.708-1.432,9.295c-2.698-2.216-5.131,0.462-6.256,3.065
		c-3.736-1.953-8.656-1.192-7.691,4.088c0,0.49-0.042-0.87,0-1.054"/>
	<path fill="none" stroke="#000000" stroke-linecap="round" stroke-miterlimit="10" d="M110.882,104.333
		c-0.39-9.411,13.543-5.658,13,4"/>
	<path fill="none" stroke="#000000" stroke-linecap="round" stroke-miterlimit="10" d="M118.549,116.333
		c0.012-3.308,3.488-4.293,6.291-3.352c1.572-7.469,13.939-10.707,10.709-2.314"/>
	<path fill="none" stroke="#000000" stroke-linecap="round" stroke-miterlimit="10" d="M128.215,124.667
		c1.185-3.354,4.327-13.22,9.476-12.563c4.692,0.599,2.775,6.221,1.524,9.229"/>
	<path fill="none" stroke="#000000" stroke-linecap="round" stroke-miterlimit="10" d="M128.882,128.667
		c3.181-13.413,17.08-1.645,5.353,5.812c0.22-0.278,0.527-0.793,0.647-1.146"/>
	<path fill="none" stroke="#000000" stroke-linecap="round" stroke-miterlimit="10" d="M193.882,33.333
		c0.026-5.895,7.147-7.674,6.727-0.692c3.027-2.963,9.432-9.014,12.118-2.284c1.388,3.475-2.423,8.98-6.178,7.311"/>
	<path fill="none" stroke="#000000" stroke-linecap="round" stroke-miterlimit="10" d="M199.882,26
		c-0.124-0.399-0.385-2.349-0.339-3.525c0.042-1.095,1.601-5.88,1.006-3.475"/>
	<path fill="none" stroke="#000000" stroke-linecap="round" stroke-miterlimit="10" d="M182.215,39.333
		c-2.915-7.983,9.636-11.799,8.333-2.666"/>
	<path fill="none" stroke="#000000" stroke-linecap="round" stroke-miterlimit="10" d="M212.882,26
		c8.12-5.709,14.151,3.598,4.667,5.667"/>
	<path fill="none" stroke="#000000" stroke-linecap="round" stroke-miterlimit="10" d="M218.215,32
		c2.931,0.282,5.576,2.671,3.765,5.396c-1.417,2.134-7.538,1.955-9.765,1.938"/>
	<path fill="none" stroke="#000000" stroke-linecap="round" stroke-miterlimit="10" d="M212.549,44
		c3.903,1.343,3.571,7.688-1.333,5.667"/>
	<path fill="none" stroke="#000000" stroke-linecap="round" stroke-miterlimit="10" d="M200.549,45.333
		c5.979-6.052,12.801,2.356,5,6"/>
	<path fill="none" stroke="#000000" stroke-linecap="round" stroke-miterlimit="10" d="M198.549,55
		c2.033-2.673,9.831-6.634,9.995-0.568c0.111,4.093-8.281,6.723-11.329,7.568"/>
	<path fill="none" stroke="#000000" stroke-linecap="round" stroke-miterlimit="10" d="M188.882,88.667
		c2.454-2.358,9.469-7.593,12.774-3.856c3.942,4.455-4.175,8.227-7.441,8.856"/>
	<path fill="none" stroke="#000000" stroke-linecap="round" stroke-miterlimit="10" d="M178.549,97
		c-2.019-3.176,1.32-7.309,4.865-7.503c5.171-0.283,5.393,6.506,1.135,6.17"/>
	<path fill="none" stroke="#000000" stroke-linecap="round" stroke-miterlimit="10" d="M176.215,92.333
		c-0.793-5.666-9.055,3.268-3.333,6.667"/>
	<path fill="none" stroke="#000000" stroke-linecap="round" stroke-miterlimit="10" d="M164.549,99
		c8.327-0.503,3.295-17.262-5.333-9.333"/>
	<path fill="none" stroke="#000000" stroke-linecap="round" stroke-miterlimit="10" d="M146.215,98.667
		c1.898-4.063,9.696-8.439,13.513-4.116c4.165,4.719-2.677,8.165-6.846,8.116"/>
	<path fill="none" stroke="#000000" stroke-linecap="round" stroke-miterlimit="10" d="M138.549,104
		c7.805-10.3,20.61,3.819,6.667,7.667"/>
	<path fill="none" stroke="#000000" stroke-linecap="round" stroke-miterlimit="10" d="M153.882,106
		c8.967-1.311,7.907,9.506,2.667,8"/>
	<path fill="none" stroke="#000000" stroke-linecap="round" stroke-miterlimit="10" d="M160.882,102.333
		c6.226-1.033,5.849,7.539,0.333,8.667"/>
	<path fill="none" stroke="#000000" stroke-linecap="round" stroke-miterlimit="10" d="M143.549,117
		c6.341-4.845,13.315,3.693,7.333,8"/>
	<path fill="none" stroke="#000000" stroke-linecap="round" stroke-miterlimit="10" d="M155.549,123.667
		c2.778-0.082,5.022-7.871,2.667-7"/>
	<path fill="none" stroke="#000000" stroke-linecap="round" stroke-miterlimit="10" d="M127.549,142
		c-0.541,0.347-0.742,0.633-1.364,0.754c1.878-3.132,12.262-13.364,12.364-3.239c-0.012-3.255,2.667-9.318,6.592-6.966
		c5.728-12.221,16.849-2.03,5.074,4.118"/>
	<path fill="none" stroke="#000000" stroke-linecap="round" stroke-miterlimit="10" d="M114.882,172.333
		c-0.7-4.214,4.156-6.729,6.667-8.333"/>
	<path fill="none" stroke="#000000" stroke-linecap="round" stroke-miterlimit="10" d="M120.882,163
		c1.248-4.576,8.296-15.119,14.301-9.75c3.634,3.248-0.497,8.543-3.634,10.417"/>
	<path fill="none" stroke="#000000" stroke-linecap="round" stroke-miterlimit="10" d="M117.882,193
		c0.579,4.028,3.534,8.645,8.218,8.183c6.561-0.646,5.316-8.438,4.483-13.119c-0.933-0.398-0.674,0.252-1.368,0.604"/>
	<path fill="none" stroke="#000000" stroke-linecap="round" stroke-miterlimit="10" d="M109.882,206.333
		c-1.718,4.047,0.103,11.777,5.898,8.992c5.502-2.645,3.251-12.859,1.501-17.064c-0.517,0.143-0.983,0.39-1.399,0.739"/>
	<path fill="none" stroke="#000000" stroke-linecap="round" stroke-miterlimit="10" d="M106.882,197c9.618,1.975-8.262,21.054-9,4"
		/>
	<path fill="none" stroke="#000000" stroke-linecap="round" stroke-miterlimit="10" d="M96.215,201.667
		c-0.337,3.567-1.76,11.365-6.835,11.138c-5.381-0.242-3.45-6.17-1.499-9.138"/>
	<path fill="none" stroke="#000000" stroke-linecap="round" stroke-miterlimit="10" d="M139.215,178.333
		c3.37-0.166,13.526-2.304,13.356-7.015c-0.217-6.018-11.399-2.639-14.356-1.318"/>
	<path fill="none" stroke="#000000" stroke-linecap="round" stroke-miterlimit="10" d="M138.549,164.667
		c4.799-1.334,13.238-5.001,14.002-10.724c1.146-8.576-8.518-4.281-12.336-1.61"/>
	<path fill="none" stroke="#000000" stroke-linecap="round" stroke-miterlimit="10" d="M108.549,179
		c10.191-0.064,6.606,18.894-1.333,13"/>
	<path fill="none" stroke="#000000" stroke-linecap="round" stroke-miterlimit="10" d="M94.549,180
		c4.159,0.595,6.717,6.807,3.934,10.008c-1.733,1.994-8.302,2.849-7.934-0.008"/>
	<path fill="none" stroke="#000000" stroke-linecap="round" stroke-miterlimit="10" d="M103.882,167.333
		c-7.221-5.025-14.488,11.296,0.667,9.667"/>
	<path fill="none" stroke="#000000" stroke-linecap="round" stroke-miterlimit="10" d="M116.882,179.333
		c13.33,5.595,17.432-11.561,3.333-9"/>
	<path fill="none" stroke="#000000" stroke-linecap="round" stroke-miterlimit="10" d="M197.215,96.667
		c4.889,2.41-0.683,7.241-4,7.666"/>
	<path fill="none" stroke="#000000" stroke-linecap="round" stroke-miterlimit="10" d="M181.549,101
		c6.024-3.073,11.864,6.466,4.333,8"/>
	<path fill="none" stroke="#000000" stroke-linecap="round" stroke-miterlimit="10" d="M172.882,112
		c3.933-8.142,13.137,1.746,5.667,6.333"/>
	<path fill="none" stroke="#000000" stroke-linecap="round" stroke-miterlimit="10" d="M185.882,110
		c6.6,1.136,0.384,7.877-4.333,7.333"/>
	<path fill="none" stroke="#000000" stroke-linecap="round" stroke-miterlimit="10" d="M164.549,112.333
		c5.556,4.609,10.975-7.407,5-8.333"/>
	<path fill="none" stroke="#000000" stroke-linecap="round" stroke-miterlimit="10" d="M165.882,126
		c6.237,3.479,9.978-9.467,2-9.333"/>
	<path fill="none" stroke="#000000" stroke-linecap="round" stroke-miterlimit="10" d="M166.549,128
		c4.261,1.616-0.484,7.39-3.667,7.667"/>
	<path fill="none" stroke="#000000" stroke-linecap="round" stroke-miterlimit="10" d="M172.882,129.667
		c2.721,2.809,1.723,7.058-2,8"/>
	<path fill="none" stroke="#000000" stroke-linecap="round" stroke-miterlimit="10" d="M168.215,141.667
		c3.025,2.442,0.781,6.395-1.667,7.333"/>
	<path fill="none" stroke="#000000" stroke-linecap="round" stroke-miterlimit="10" d="M165.215,147
		c4.137,5.429-1.841,10.653-6.667,10.333"/>
	<path fill="none" stroke="#000000" stroke-linecap="round" stroke-miterlimit="10" d="M162.215,159.333
		c2.918,2.397,1.348,7.437-2.333,6"/>
	<path fill="none" stroke="#000000" stroke-linecap="round" stroke-miterlimit="10" d="M212.215,53
		c2.753-0.777,3.733,1.439,3.377,4.025c-0.369,2.683-3.649,4.151-3.71,4.308"/>
	<path fill="none" stroke="#000000" stroke-linecap="round" stroke-miterlimit="10" d="M217.882,61.333
		c2.183,0.616,4.042,3.333,2.217,5.385c-1.195,1.345-5.046,0.534-6.55,0.949"/>
	<path fill="none" stroke="#000000" stroke-linecap="round" stroke-miterlimit="10" d="M203.215,77.667
		c1.754-0.868,3.931-0.434,5.019,1.573c1.432-2.225,3.913-3.202,6.263-1.934c0.071-3.343,4.051-5.315,7.065-4.231
		c-0.505,0.261-1.173,0.309-1.68,0.592"/>
	<path fill="none" stroke="#000000" stroke-linecap="round" stroke-miterlimit="10" d="M22.882,166.667
		c2.478-0.476,5.364-0.853,7.333-2.334"/>
	<path fill="none" stroke="#000000" stroke-linecap="round" stroke-miterlimit="10" d="M24.215,159.333
		c2.195-0.325,4.651-0.224,6.667-1.333"/>
	<path fill="none" stroke="#000000" stroke-linecap="round" stroke-miterlimit="10" d="M32.215,147.667
		c1.732,0.017,3.752,0.578,4.667,1.333"/>
	<path fill="none" stroke="#000000" stroke-linecap="round" stroke-miterlimit="10" d="M40.882,190.333
		c1.278,0.23,2.326-0.231,3-1.333"/>
	<path fill="none" stroke="#000000" stroke-linecap="round" stroke-miterlimit="10" d="M40.215,174.667
		c2.114,0.053,4.039-1.894,4.667-0.667"/>
	<path fill="none" stroke="#000000" stroke-linecap="round" stroke-miterlimit="10" d="M62.882,203.667
		c2.176-1.08,2.514-4.501,2.333-6"/>
	<path fill="none" stroke="#000000" stroke-linecap="round" stroke-miterlimit="10" d="M67.882,213.667
		c3.715,1.93,7.283,0.695,8-3.667"/>
	<path fill="none" stroke="#000000" stroke-linecap="round" stroke-miterlimit="10" d="M80.882,212.667
		c0.635,1.947,1.972,6.369,1.667,7.666"/>
	<path fill="none" stroke="#000000" stroke-linecap="round" stroke-miterlimit="10" d="M95.215,216
		c0.432,0.991,1.579,2.177,2.433,2.986c0.901,0.022,0.35-0.433,0.901-0.986"/>
	<path fill="none" stroke="#000000" stroke-linecap="round" stroke-miterlimit="10" d="M131.882,202.667
		c2.157,0.705,4.81,3.574,5.333,4"/>
	<path fill="none" stroke="#000000" stroke-linecap="round" stroke-miterlimit="10" d="M143.549,198.333
		c2.026,0.742,4.155,1.278,6.333,1.334"/>
	<path fill="none" stroke="#000000" stroke-linecap="round" stroke-miterlimit="10" d="M149.549,188.667
		c1.119,1.317,3.582,2.319,4.333,2.333"/>
	<path fill="none" stroke="#000000" stroke-linecap="round" stroke-miterlimit="10" d="M156.549,178.333
		c1.622-0.064,3.808-0.365,5-0.666"/>
	<path fill="none" stroke="#000000" stroke-linecap="round" stroke-miterlimit="10" d="M173.215,143.667
		c2.494-0.214,4.561,2.293,5,3"/>
	<path fill="none" stroke="#000000" stroke-linecap="round" stroke-miterlimit="10" d="M182.549,131.667
		c2.369-0.214,5.782-0.74,5.667-1.334"/>
	<path fill="none" stroke="#000000" stroke-linecap="round" stroke-miterlimit="10" d="M184.882,122.333
		c2.224,0.427,4.057,3.732,4,2.667"/>
	<path fill="none" stroke="#000000" stroke-linecap="round" stroke-miterlimit="10" d="M193.215,114.333
		c1.796,1.409,3.484,1.076,4.667-1"/>
	<path fill="none" stroke="#000000" stroke-linecap="round" stroke-miterlimit="10" d="M201.215,96
		c0.587,0.367,1.289,0.604,1.942,0.9c0.75-2.734,3.409-5.175,6.058-4.9"/>
	<path fill="none" stroke="#000000" stroke-linecap="round" stroke-miterlimit="10" d="M152.215,38
		c-1.721-0.657-3.159-2.008-4-3.667"/>
	<path fill="none" stroke="#000000" stroke-linecap="round" stroke-miterlimit="10" d="M156.882,32
		c-1.876-0.41-3.725-2.222-4.667-3.333"/>
	<path fill="none" stroke="#000000" stroke-linecap="round" stroke-miterlimit="10" d="M143.215,46
		c-2.29-0.859-4.625-1.749-6.333-3.667"/>
	<path fill="none" stroke="#000000" stroke-linecap="round" stroke-miterlimit="10" d="M137.549,52
		c-0.923-1.676-5.236-4.637-7-3.333"/>
	<path fill="none" stroke="#000000" stroke-linecap="round" stroke-miterlimit="10" d="M132.882,57
		c-1.619-1.98-3.464-4.071-6.333-3.667"/>
	<path fill="none" stroke="#000000" stroke-linecap="round" stroke-miterlimit="10" d="M127.882,61.333
		c-2.977-0.89-7.433-3.751-10-2.666"/>
	<path fill="none" stroke="#000000" stroke-linecap="round" stroke-miterlimit="10" d="M116.549,74
		c-3.505,0.187-7.165-1.883-9.333-4.333"/>
	<path fill="none" stroke="#000000" stroke-linecap="round" stroke-miterlimit="10" d="M111.882,76.667
		c-2.32-0.821-5.701-1.45-7,0.666"/>
	<path fill="none" stroke="#000000" stroke-linecap="round" stroke-miterlimit="10" d="M101.215,87
		c-2.941,0.639-5.721-2.553-6.667-5.333"/>
	<path fill="none" stroke="#000000" stroke-linecap="round" stroke-miterlimit="10" d="M94.215,86.667
		c-2.456-1.304-5.362-4.433-8-2.667"/>
	<path fill="none" stroke="#000000" stroke-linecap="round" stroke-miterlimit="10" d="M87.215,93.333
		c-2.742,0.941-5.829-0.113-7.649-2.356c-0.365,0.376-0.593,0.828-0.684,1.356"/>
	<path fill="none" stroke="#000000" stroke-linecap="round" stroke-miterlimit="10" d="M74.882,102.333
		c1.486,0.356,2.854,1.22,3.667,2.334"/>
	<path fill="none" stroke="#000000" stroke-linecap="round" stroke-miterlimit="10" d="M65.549,117c-1.557,1.472-5.351,1.437-8,1"/>
	<path fill="none" stroke="#000000" stroke-linecap="round" stroke-miterlimit="10" d="M63.882,123.333
		c-3.001,0.188-5.971,0.402-9,0.334"/>
	<path fill="none" stroke="#000000" stroke-linecap="round" stroke-miterlimit="10" d="M56.882,129.333
		c-2.689,2.135-6.734,1.579-9.667,0.334"/>
	<path fill="none" stroke="#000000" stroke-linecap="round" stroke-miterlimit="10" d="M52.215,135.333
		c-2.057,0.002-8.357-0.704-10,0"/>
	<path fill="none" stroke="#000000" stroke-linecap="round" stroke-miterlimit="10" d="M45.549,140.667
		c-2.616-0.731-6.104-1.408-7.667,0.666"/>
	<path fill="none" stroke="#000000" stroke-linecap="round" stroke-miterlimit="10" d="M186.215,28.333
		c0.292-3.318,3.134-7.612,6-7.666"/>
	<path fill="none" stroke="#000000" stroke-linecap="round" stroke-miterlimit="10" d="M218.882,49.333
		c1.319-0.675,2.637-0.442,3.667,0.667"/>
	<path fill="none" stroke="#000000" stroke-linecap="round" stroke-miterlimit="10" d="M222.215,58.333
		c1.013,0.747,2.184,1.02,3,0.667"/>
	<path fill="none" stroke="#000000" stroke-linecap="round" stroke-miterlimit="10" d="M136.215,180
		c1.945,0.733,9.087,4.022,6.667,6"/>
	<path fill="none" stroke="#000000" stroke-linecap="round" stroke-miterlimit="10" d="M53.549,197.333
		c-0.302-2.062,0.356-4.035,2-5.333"/>
	<path fill="none" stroke="#000000" stroke-miterlimit="10" d="M161.215,83.668c2.365-1.74,6.354-5.062,9.491-3.714
		c4.417,1.897,2.682,7.251-0.824,9.048"/>
	<path fill="none" stroke="#000000" stroke-miterlimit="10" d="M176.548,87.002c3.471-11.528,11.873-3.011,7.667,0.666"/>
	<path fill="none" stroke="#000000" stroke-miterlimit="10" d="M182.881,77.002c6.11-5.947,7.648,5.344,4,9.333"/>
	<path fill="none" stroke="#000000" stroke-miterlimit="10" d="M189.881,82.335c5.934-0.165,8.712-10.437,1.333-10.667"/>
	<path fill="none" stroke="#000000" stroke-miterlimit="10" d="M196.881,77.335c7.84-5.017,0.921-14.643-5-7.333"/>
	<path fill="none" stroke="#000000" stroke-miterlimit="10" d="M167.548,75.002c-0.01-11.486,11.692-2.234,5.667,1"/>
	<path fill="none" stroke="#000000" stroke-miterlimit="10" d="M176.548,69.335c5.705-6.79,11.567,4.262,4,5.333"/>
	<path fill="none" stroke="#000000" stroke-miterlimit="10" d="M185.548,70.668c8.527-1.651,2.514-11.706-4.333-8.333"/>
	<path fill="none" stroke="#000000" stroke-miterlimit="10" d="M190.548,64.002c3.355-1.952,4.66-9.383-1-7.667"/>
	<path fill="none" stroke="#000000" stroke-miterlimit="10" d="M188.215,57.668c0.298-3.456-3.1-4.013-5.696-2.841
		c-2.659,1.2-3.588,4.726-4.637,7.175"/>
	<path fill="none" stroke="#000000" stroke-miterlimit="10" d="M138.881,99.668c1.63-2.521,2.928-6.339,2.333-9"/>
	<path fill="none" stroke="#000000" stroke-miterlimit="10" d="M148.548,93.335c2.231-1.869,3.12-4.934,3.667-7.667"/>
	<path fill="none" stroke="#000000" stroke-miterlimit="10" d="M154.548,85.335c1.704-1.76,2.359-4.284,1.981-6.696
		c0.581-0.547,0.145,0.254,0.019,0.696"/>
	<path fill="none" stroke="#000000" stroke-miterlimit="10" d="M167.215,67.668c1.241-1.921,1.608-4.988,0.333-5"/>
	<path fill="none" stroke="#000000" stroke-miterlimit="10" d="M202.548,70.668c0.006,0.3,0.004,0.716,0.333,0.334"/>
	<path fill="none" stroke="#000000" stroke-miterlimit="10" d="M202.548,70.668c-0.179,0.582-0.077,1.06,0.309,1.434
		c7.793,0.746,11.916-12.225,3.358-10.1"/>
	<path fill="none" stroke="#000000" stroke-miterlimit="10" d="M178.881,120.334c2.024,3.518-1.224,5.449-4.333,6"/>
	<path fill="none" stroke="#000000" stroke-linecap="round" stroke-miterlimit="10" d="M135.132,150
		c2.521-0.669,4.128-5.901,4.25-8.5"/>
	<path fill="none" stroke="#000000" stroke-linecap="round" stroke-miterlimit="10" d="M141.382,147.75
		c2.568-0.926,6.79-6.477,6.5-8.75"/>
	<path fill="none" stroke="#000000" stroke-linecap="round" stroke-miterlimit="10" d="M150.632,142.5
		c2.234-1.946,6.588-1.72,8.25-1.75"/>
	<path fill="none" stroke="#000000" stroke-linecap="round" stroke-miterlimit="10" d="M152.632,145.75
		c2.108-0.335,5.673-0.771,6.75,0.75"/>
	<path fill="none" stroke="#000000" stroke-linecap="round" stroke-miterlimit="10" d="M218.382,41.75
		c2.411,1.138-0.167,3.111-0.75,3"/>
	<path fill="none" stroke="#000000" stroke-miterlimit="10" d="M145.827,59.069c13.388-14.129,25.583-29.356,36.722-43.735"/>
	<path fill="none" stroke="#000000" stroke-miterlimit="10" d="M128.65,75.851c5.935-5.316,11.657-10.956,17.177-16.781"/>
	<path fill="none" stroke="#000000" stroke-miterlimit="10" d="M52.158,147.798c3.391-3.464,19.382-22.025,24.406-27.813
		c11.802-13.595,26.538-23.488,40.634-34.52c3.903-3.055,7.72-6.271,11.452-9.614"/>
</g>
<g id="Layer_2" display="none">
	<g id="XMLID_1_" display="inline">
		<g>
			<path fill="#FFDD04" d="M145.832,59.067c0,0-16.771,16.858-17.304,17.112l19.425-52.046l9.24,4.238L145.832,59.067z"/>
			<polygon points="158.634,11.76 158.177,17.063 158.137,17.064 155.173,15.769 			"/>
			<polygon fill="#FFEFCC" points="158.177,17.063 157.192,28.372 147.952,24.133 155.173,15.769 158.137,17.064 			"/>
		</g>
		<g>
			
				<path fill="none" stroke="#000000" stroke-width="0.75" stroke-linecap="round" stroke-linejoin="round" stroke-miterlimit="10" d="
				M157.192,28.372l-11.36,30.696c0,0-16.771,16.858-17.304,17.112l19.425-52.046"/>
			
				<polygon fill="none" stroke="#000000" stroke-width="0.75" stroke-linecap="round" stroke-linejoin="round" stroke-miterlimit="10" points="
				158.177,17.063 158.634,11.76 155.173,15.769 147.952,24.133 157.192,28.372 			"/>
			
				<line fill="none" stroke="#000000" stroke-width="0.75" stroke-linecap="round" stroke-linejoin="round" stroke-miterlimit="10" x1="155.173" y1="15.769" x2="158.137" y2="17.064"/>
		</g>
	</g>
</g>
</svg>
