<?xml version="1.0" encoding="utf-8"?>
<!-- Generator: Adobe Illustrator 16.0.3, SVG Export Plug-In . SVG Version: 6.00 Build 0)  -->
<!DOCTYPE svg PUBLIC "-//W3C//DTD SVG 1.1//EN" "http://www.w3.org/Graphics/SVG/1.1/DTD/svg11.dtd">
<svg version="1.1" id="Layer_1" xmlns="http://www.w3.org/2000/svg" xmlns:xlink="http://www.w3.org/1999/xlink" x="0px" y="0px"
	 width="268px" height="100px" viewBox="0 0 268 100" enable-background="new 0 0 268 100" xml:space="preserve">
<path fill="none" stroke="#000000" stroke-miterlimit="10" d="M53.084,13.018h188.387c0,0,9.216,1.105,8.479,8.11l-7.373,46.452
	c0,0-3.688,7.004-11.061,6.636L20.642,74.229c0,0-8.479-1.12-5.53-8.493l26.912-48.295C42.024,17.441,46.449,13.018,53.084,13.018z"
	/>
<path fill="none" stroke="#000000" stroke-miterlimit="10" d="M248.672,16.556c7.199,3.538,4.71,13.789,4.71,13.789l-8.224,46.82
	c-1.844,6.636-9.586,8.11-9.586,8.11H21.379c0,0-13.526-4.325-6.89-17.327"/>
<ellipse fill="none" stroke="#000000" stroke-miterlimit="10" cx="233.07" cy="41.482" rx="8.295" ry="4.978"/>
<line fill="none" stroke="#000000" stroke-miterlimit="10" x1="45.195" y1="37.521" x2="40.098" y2="46.316"/>
<ellipse fill="none" stroke="#000000" stroke-miterlimit="10" cx="37.349" cy="52.214" rx="1.249" ry="1.299"/>
<ellipse fill="none" stroke="#000000" stroke-miterlimit="10" cx="35.95" cy="42.268" rx="0.949" ry="0.75"/>
<polygon fill="none" stroke="#000000" stroke-miterlimit="10" points="68.715,16.556 227.215,16.556 215.382,69.834 40.098,69.834 
	"/>
</svg>
