<?xml version="1.0" encoding="utf-8"?>
<!-- Generator: Adobe Illustrator 16.0.3, SVG Export Plug-In . SVG Version: 6.00 Build 0)  -->
<!DOCTYPE svg PUBLIC "-//W3C//DTD SVG 1.1//EN" "http://www.w3.org/Graphics/SVG/1.1/DTD/svg11.dtd">
<svg version="1.1" xmlns="http://www.w3.org/2000/svg" xmlns:xlink="http://www.w3.org/1999/xlink" x="0px" y="0px" width="207px"
	 height="217px" viewBox="0 0 207 217" enable-background="new 0 0 207 217" xml:space="preserve">
<g id="Layer_1">
	<path fill="#E8FFFD" stroke="#000000" stroke-miterlimit="10" d="M24.883,12.334l-2.279,5.576l2.279,108.091
		c0,0,1.311,0.301,3.731,0.832h0.001c0.083-1.76,1.309-12.634,0.6-13.834"/>
	<path fill="#E8FFFD" stroke="#000000" stroke-miterlimit="10" d="M190.55,139.667c0,0,5.333,8.997-1,8.997
		c-4.874,0-9.931-0.125-15.117-0.355l1.175-2.25c0.395-0.055,0.827-0.098,1.226-0.109c-0.378-3.247,2.28-0.715,2.981-2.35
		c0.447-1.043-0.697-3.193-0.88-4.215c1.044,0.041,2.222-0.195,3.255-0.118c-0.156-0.313-0.404-0.627-0.64-0.933l0.784-1.021"/>
	<path fill="#E8FFFD" stroke="#000000" stroke-miterlimit="10" d="M24.883,12.334l2.667,100.333c0,0,101,8.334,163,27
		c3.962,1.192,2.666-5,2.666-5l-36-101.666C157.216,33.001,94.216,5.667,24.883,12.334z"/>
	<path fill="none" stroke="#000000" stroke-miterlimit="10" d="M174.433,148.309c-56.687-2.523-128.77-17.732-145.818-21.476"/>
	<path fill="none" stroke="#000000" stroke-miterlimit="10" d="M36.883,105.896c-11.667-11-28,8.771-12,15.771"/>
	<path fill="none" stroke="#000000" stroke-miterlimit="10" d="M36.217,101.565c-11.667-11-28,8.771-12,15.771"/>
	<path fill="none" stroke="#000000" stroke-miterlimit="10" d="M36.217,95.152c-11.667-11-28,8.771-12,15.771"/>
	<path fill="none" stroke="#000000" stroke-miterlimit="10" d="M36.217,88.053c-11.667-11-28,8.771-12,15.771"/>
	<path fill="none" stroke="#000000" stroke-miterlimit="10" d="M36.217,81.747c-11.667-11-28,8.771-12,15.771"/>
	<path fill="none" stroke="#000000" stroke-miterlimit="10" d="M36.217,76.563c-11.667-11-28,8.771-12,15.771"/>
	<path fill="none" stroke="#000000" stroke-miterlimit="10" d="M36.217,71.744c-12.452-9.307-28,8.771-12,15.771"/>
	<path fill="none" stroke="#000000" stroke-miterlimit="10" d="M35.588,65.695c-12.18-9.614-27.371,8.806-11.371,15.806"/>
	<path fill="none" stroke="#000000" stroke-miterlimit="10" d="M35.217,60.42c-11.93-10.087-27.879,8.728-11.381,15.945"/>
	<path fill="none" stroke="#000000" stroke-miterlimit="10" d="M34.55,54.159c-11.386-9.65-26.361,9.849-10.831,16.643"/>
	<path fill="none" stroke="#000000" stroke-miterlimit="10" d="M34.55,49.001c-12.653-9.174-26.938,9.694-10.938,16.694"/>
	<path fill="none" stroke="#000000" stroke-miterlimit="10" d="M34.216,44.001c-12.537-8-26.699,10.19-10.699,17.19"/>
	<path fill="none" stroke="#000000" stroke-miterlimit="10" d="M33.883,39.114c-10.966-8.186-26.475,9.967-10.475,16.967"/>
	<path fill="none" stroke="#000000" stroke-miterlimit="10" d="M32.883,35.001c-9.872-7.093-25.544,9.772-9.544,16.772"/>
	<path fill="none" stroke="#000000" stroke-miterlimit="10" d="M32.073,30.022c-11.015-7.019-24.867,9.442-8.867,16.442"/>
	<path fill="none" stroke="#000000" stroke-miterlimit="10" d="M31.883,25.168c-10.871-7.849-24.785,9.181-8.785,16.181"/>
	<path fill="none" stroke="#000000" stroke-miterlimit="10" d="M31.716,20.592c-10.514-6.925-24.708,9.475-8.708,16.475"/>
	<path fill="none" stroke="#000000" stroke-miterlimit="10" d="M30.906,15.978c-11.347-7.242-23.974,10.54-7.974,17.54"/>
	<path fill="none" stroke="#000000" stroke-miterlimit="10" d="M46.549,123.333c22.994,0,45.233,9.694,68.082,11.918
		c8.83,0.859,17.47,0.747,26.252,2.082"/>
	<path fill="#C8C9C9" stroke="#000000" stroke-miterlimit="10" d="M115.215,185.666c-4.489,0.612-6.206-4.229-3.333-7.333
		c0,0,15.47-10.667,19.09-4S115.215,185.666,115.215,185.666z"/>
	<path fill="#C8C9C9" stroke="#000000" stroke-miterlimit="10" d="M116.215,178.333c-3.939,5.34-21.802-18.923-3.011-11.276
		c2.331-3.106,3.161-4.618,6.001-0.661c1.223-1.76,2.609-4.766,5.002-5.435c4.12-1.151,3.306,1.93,5.433,3.711
		c2.155,1.806,0.895-0.069,3.898,0.298c2.663,0.325,2.848,1.799,2.727,4.313c5.971,0.468,1.235,12.558-5.658,10.592
		c-0.879-5.173-10.581-8.192-12.64-2.209c-1.192,3.465,1.415,3.123,3.58,2.325c2.842-1.049,5.488-2.751,8.601-0.999
		c1.568,0.883,3.996,4.444,5.326,6.008c1.955,2.297,3.585,5.107,5.068,7.243c1.363,1.963,4.397,4.134,3.289,7.091
		c-1.242,3.314-5.04,2.506-7.573,2.385c-0.238,1.405,0.156,2.861,0.239,4.23c-3.312,0.549-5.082-4.938-7.615-6.323
		c-3.625,7.335-9.953-6.667-10.76-9.466c-0.074,1.143-0.742,2.065-1.25,2.903c-1.65-1.802-1.521-4.74-0.925-7.062
		c0.287-1.12,0.843-2.282,1.352-3.328c0.255-0.526,1.827-3.907,1.249-2.341"/>
	<g>
		<path fill="none" stroke="#000000" stroke-width="0.75" stroke-linecap="round" stroke-miterlimit="10" d="M37.632,104.5
			c3.656,2.58-2.62,5.487-3.25,2.125"/>
		<path fill="none" stroke="#000000" stroke-width="0.75" stroke-linecap="round" stroke-miterlimit="10" d="M37.632,100.25
			c1.779,0.827-0.189,2.542-1.375,2.75"/>
		<path fill="none" stroke="#000000" stroke-width="0.75" stroke-linecap="round" stroke-miterlimit="10" d="M37.257,93.875
			c1.812,0.873,0.927,2.734-0.875,2.5"/>
		<path fill="none" stroke="#000000" stroke-width="0.75" stroke-linecap="round" stroke-miterlimit="10" d="M37.507,86.875
			c2.159,0.983,0.439,4.051-1.25,2.875"/>
		<path fill="none" stroke="#000000" stroke-width="0.75" stroke-linecap="round" stroke-miterlimit="10" d="M36.507,80.75
			c2.097-0.274,1.566,2.711-0.625,2"/>
		<path fill="none" stroke="#000000" stroke-width="0.75" stroke-linecap="round" stroke-miterlimit="10" d="M36.132,77.5
			c1.178,0.465,1.843-0.561,1.375-1.625"/>
		<path fill="none" stroke="#000000" stroke-width="0.75" stroke-linecap="round" stroke-miterlimit="10" d="M36.382,72.625
			c0.616-0.202,0.865-0.65,0.75-1.125"/>
		<path fill="none" stroke="#000000" stroke-width="0.75" stroke-linecap="round" stroke-miterlimit="10" d="M35.257,67
			c0.986-0.175,1.612-1.215,1.25-1.875"/>
		<path fill="none" stroke="#000000" stroke-width="0.75" stroke-linecap="round" stroke-miterlimit="10" d="M35.257,61.5
			c0.52-0.125,0.729-0.477,0.625-1"/>
		<path fill="none" stroke="#000000" stroke-width="0.75" stroke-linecap="round" stroke-miterlimit="10" d="M34.882,55.625
			c0.365-0.178,0.555-0.543,0.5-0.75"/>
		<path fill="none" stroke="#000000" stroke-width="0.75" stroke-linecap="round" stroke-miterlimit="10" d="M35.257,49.875
			c0.201-0.194,0.415-0.268,0.479-0.59c-0.144-0.435-0.182-0.161-0.354-0.16"/>
		<path fill="none" stroke="#000000" stroke-width="0.75" stroke-linecap="round" stroke-miterlimit="10" d="M34.507,44.625
			c0.505-0.015,0.7-0.42,0.625-1"/>
		<path fill="none" stroke="#000000" stroke-width="0.75" stroke-linecap="round" stroke-miterlimit="10" d="M34.257,40.25
			c0.491-0.382,0.692-0.99,0.5-1.5"/>
		<path fill="none" stroke="#000000" stroke-width="0.75" stroke-linecap="round" stroke-miterlimit="10" d="M33.257,35.625
			c0.393-0.055,0.479-0.349,0.375-0.75"/>
		<path fill="none" stroke="#000000" stroke-width="0.75" stroke-linecap="round" stroke-miterlimit="10" d="M32.382,31.125
			c0.457-0.248,0.688-0.778,0.625-1.375"/>
		<path fill="none" stroke="#000000" stroke-width="0.75" stroke-linecap="round" stroke-miterlimit="10" d="M32.132,26
			c0.322,0.435,0.356-0.057,0.375-0.5"/>
		<path fill="none" stroke="#000000" stroke-width="0.75" stroke-linecap="round" stroke-miterlimit="10" d="M31.882,21.25
			c0.401,0.016,0.609-0.293,0.625-0.75"/>
		<path fill="none" stroke="#000000" stroke-width="0.75" stroke-linecap="round" stroke-miterlimit="10" d="M31.257,17.25
			c0.548-0.061,0.784-0.437,0.75-1"/>
	</g>
	<path fill="none" stroke="#000000" stroke-miterlimit="10" d="M116.882,173.75c-1.264,0.935-4.082-2.357-5-4.25"/>
	<path fill="none" stroke="#000000" stroke-miterlimit="10" d="M116.382,168c1.712,0.549,3.134,2.632,4,3.75"/>
	<path fill="none" stroke="#000000" stroke-miterlimit="10" d="M124.882,171.5c-1.547-0.76-1.955-5.043-0.25-6.5"/>
	<path fill="none" stroke="#000000" stroke-miterlimit="10" d="M129.632,175.5c2.639-0.842,2.072-5.904,1.25-8"/>
	<path fill="none" stroke="#000000" stroke-miterlimit="10" d="M121.132,183.5c-0.39,1.545-0.787,3.14-0.75,4.75"/>
	<path fill="none" stroke="#000000" stroke-miterlimit="10" d="M124.382,183c4.488,2.651,4.451,9.669,4.5,14.25"/>
	<path fill="none" stroke="#000000" stroke-miterlimit="10" d="M130.132,190.75c1.826,2.446,3.612,5.104,5.243,7.648
		c-0.256-0.378-0.504-0.761-0.743-1.148"/>
	<path fill="none" stroke="#000000" stroke-miterlimit="10" d="M127.882,181.25c3.241,4.461,9.971,9.999,11.75,14"/>
	<path fill="#C8C9C9" stroke="#000000" stroke-miterlimit="10" d="M91.215,180c5.684,5.624,19.31,1.102,19.31,1.102l0.357,2.231
		c0,0-3.198,1.062-6.819,1.979c-5.923,1.502-13.514-1.979-13.514-1.979c-3.951,3.583-4.667-2.333-4.667-2.333
		c-5.432-0.337-4.333-3.667-4.333-3.667c-9.951-0.667-7.312-7.336-7.312-7.336c-4.979-1.336-3.229-6.854-3.229-6.854
		c-2.324-1.138-2.126-4.81-2.126-4.81c-3.679-5.184-1.5-7.333-1.5-7.333c-4.132-1.983-1.048-8.012-1.048-8.012
		c-3.167-4.321-1.785-7.655-1.785-7.655c-3.056-2.543-1-5-1-5c-4.666-2.333-3.334-6-3.334-6l13,2.667c0,0,1.875,3.209,0.667,5.333
		c0,0,3.333,2.319,1.118,7.486c0,0,3.136,4.118,1.443,7.399c0,0,3.105,1.78-0.228,6.447c0,0,3.558,1.572,1.667,5.334
		c0,0,3.262,1,4.065,6c0,0,3.616,0.752,3.584,9.376c0,0,2.193,0.477,2.018,3.957C87.549,178.333,90.402,177.688,91.215,180"/>
</g>
<g id="Layer_2">
	<path fill="none" stroke="#000000" stroke-linecap="round" stroke-miterlimit="10" d="M75,170
		c-0.266,0.176-0.381,0.428-0.523,0.333c3.467-0.321,7.808,1.733,10.357,4"/>
	<path fill="none" stroke="#000000" stroke-linecap="round" stroke-miterlimit="10" d="M70.667,162.833
		c4.834-0.559,6.334,3.76,8.167,7.167"/>
	<path fill="none" stroke="#000000" stroke-linecap="round" stroke-miterlimit="10" d="M68.5,157.833
		c3.275-0.335,6.885,1.309,6.667,5.167"/>
	<path fill="none" stroke="#000000" stroke-linecap="round" stroke-miterlimit="10" d="M67.667,151.5
		c3.064,0.471,4.944,3.565,4.667,6.5"/>
	<path fill="none" stroke="#000000" stroke-linecap="round" stroke-miterlimit="10" d="M65.833,143.167
		c2.85-0.395,3.667,6.768,3.667,8.962c0-0.377,0-0.753,0-1.129"/>
	<path fill="none" stroke="#000000" stroke-linecap="round" stroke-miterlimit="10" d="M64.667,135
		c4.923,1.704,7.826,6.107,4.667,10.667"/>
	<path fill="none" stroke="#000000" stroke-linecap="round" stroke-miterlimit="10" d="M63.833,130.5
		c3.22,0.55,5.494,3.653,5.167,6.833"/>
	<path fill="none" stroke="#000000" stroke-linecap="round" stroke-miterlimit="10" d="M67.5,132.167
		c-0.387-1.498-0.775-5.36,1-5.334"/>
	<path fill="none" stroke="#000000" stroke-linecap="round" stroke-miterlimit="10" d="M69.667,138.167
		c-0.682-2.074,3.053-6.052,3.833-5.334"/>
	<path fill="none" stroke="#000000" stroke-linecap="round" stroke-miterlimit="10" d="M70.167,144.333
		c0.786-1.715,2.88-4.106,4.5-5.166"/>
	<path fill="none" stroke="#000000" stroke-linecap="round" stroke-miterlimit="10" d="M70.667,152.167
		c0.509-2.861,3.456-4.204,5.167-5.334"/>
	<path fill="none" stroke="#000000" stroke-linecap="round" stroke-miterlimit="10" d="M72.833,157.667
		c-0.309-1.82,1.516-4.072,3-4.334"/>
	<path fill="none" stroke="#000000" stroke-linecap="round" stroke-miterlimit="10" d="M75.5,163.167
		c0.198-1.187,1.028-2.784,2-3.834"/>
	<path fill="none" stroke="#000000" stroke-linecap="round" stroke-miterlimit="10" d="M79.833,171.333
		c-0.048-1.935,0.143-4.646,2-5.833"/>
	<path fill="none" stroke="#000000" stroke-linecap="round" stroke-miterlimit="10" d="M81.5,176.667
		c1.405,0.198,2.757-1.24,3-2.334"/>
	<path fill="none" stroke="#000000" stroke-linecap="round" stroke-miterlimit="10" d="M85.167,180.5
		c0.751-0.205,1.403-0.827,1.833-1.667"/>
	<path fill="none" stroke="#000000" stroke-linecap="round" stroke-miterlimit="10" d="M90.167,183.167
		c0.217-0.832,0.476-1.801,0.667-2.5"/>
</g>
</svg>
